<?xml version="1.0" encoding="utf-8"?>
<!-- Generator: Adobe Illustrator 27.7.0, SVG Export Plug-In . SVG Version: 6.00 Build 0)  -->
<svg version="1.1" id="Capa_1" xmlns="http://www.w3.org/2000/svg" xmlns:xlink="http://www.w3.org/1999/xlink" x="0px" y="0px"
	 viewBox="0 0 512 512" style="enable-background:new 0 0 512 512;" xml:space="preserve">
<style type="text/css">
	.st0{fill:#00005B;}
</style>
<g>
	<g>
		<polygon class="st0" points="165.5,173.7 193,262.7 138.7,262.7 		"/>
		<path class="st0" d="M421.3,6.4H90.7C40.6,6.4,0,47,0,97.1v317.9c0,50.1,40.6,90.7,90.7,90.7h330.7c50.1,0,90.7-40.6,90.7-90.7
			V97.1C512,47,471.4,6.4,421.3,6.4z M271.3,358.4h-44.7c-1.6,0.2-3.1-0.9-3.4-2.4l-17.5-50.9h-79.3l-16.1,50.2
			c-0.4,1.9-2.2,3.2-4.1,3.1H65.9c-2.3,0-3.1-1.3-2.4-3.8l68.7-197c0.7-2.1,1.4-4.1,2.1-6.7c0.9-4.6,1.3-9.3,1.4-13.9
			c-0.2-1.2,0.6-2.2,1.8-2.4c0.2,0,0.4,0,0.6,0h54.6c1.6,0,2.5,0.6,2.7,1.7l78,218.7C274,357.2,273.3,358.4,271.3,358.4z
			 M438.7,273.4c-0.3,4.1-0.6,7.1-0.9,8.9c-0.2,1.6-1.5,2.8-3.1,2.8c-1.4,0-3.7,0.2-7,0.5c-3.3,0.3-7.4,0.6-12.4,0.7
			c-4.9,0.1-10.1-0.7-15.6-0.7h-67.7c0.8,6.7,3.1,13.1,6.5,18.9c3.8,5.7,9.3,10.2,15.6,12.9c8.6,3.7,17.9,5.5,27.3,5.4
			c7.4-0.1,14.8-1,22.2-2.4c6.5-0.9,12.9-2.6,19.1-4.9c1.1-0.9,1.7-0.3,1.7,1.7v32.6c0.1,0.9-0.1,1.8-0.5,2.6
			c-0.4,0.6-0.9,1.2-1.5,1.5c-6.8,3-14,5.1-21.3,6.3c-10,1.9-20.1,2.7-30.2,2.6c-25.7,0-50.8-7.4-67.7-27.8
			C290,318.8,284,296.6,284,275.8c0-22.6,6.8-45.5,21.3-63c15.7-19,37.3-26.9,61.5-26.9c20.8,0,42.3,7,55.6,23.5
			c11.2,13.9,16.8,32.6,16.8,50.3C439.3,264.7,439.1,269.2,438.7,273.4z M365.1,222.9c-11.8-0.7-22.9,5.6-28.3,16.1
			c-2.4,4.8-3.9,9.9-4.6,15.2h45c5.5,0,9.6,0,12.2-0.2c1.7-0.2,3.5-0.7,5-1.6v-2.1c-0.1-2.7-0.5-5.4-1.4-7.9
			C389.1,230.4,377.7,222.4,365.1,222.9z"/>
	</g>
</g>
</svg>
