<?xml version="1.0" encoding="UTF-8"?>
<!DOCTYPE svg PUBLIC "-//W3C//DTD SVG 1.1//EN" "http://www.w3.org/Graphics/SVG/1.1/DTD/svg11.dtd">
<!-- Creator: CorelDRAW 2020 (64-Bit) -->
<svg xmlns="http://www.w3.org/2000/svg" xml:space="preserve" width="350.02mm" height="80.1895mm" version="1.1" style="shape-rendering:geometricPrecision; text-rendering:geometricPrecision; image-rendering:optimizeQuality; fill-rule:evenodd; clip-rule:evenodd"
viewBox="0 0 9653.63 3096.23"
 xmlns:xlink="http://www.w3.org/1999/xlink"
 xmlns:xodm="http://www.corel.com/coreldraw/odm/2003">
 <defs>
  <style type="text/css">
   <![CDATA[
    .fil0 {fill:#FEFEFE}
   ]]>
  </style>
 </defs>
 <g id="Capa_x0020_1">
  <metadata id="CorelCorpID_0Corel-Layer"/>
  <path class="fil0" d="M8768.84 1823.26c-44.01,234.31 -139.91,514.84 -268.86,657.07 -255.51,281.85 -376.41,-90.79 -325.49,-393.27 141.34,-839.57 744.09,-1061.07 594.35,-263.8zm-6135.66 408.64c0,-682.8 653.06,-1319.08 625.25,-572.04 -9.06,243.25 -109.31,547.99 -214.02,718.24 -189.94,308.83 -411.23,244.86 -411.23,-146.2zm4583.24 -1021.59c0.09,-119.16 19.12,-258.45 152.26,-244.71 22.1,34.65 35.76,63.57 35.8,122.12 0.14,183.66 -36.22,290.28 -80.32,449.06 -69.66,-55.01 -107.85,-190.82 -107.76,-312.85l0.01 -13.62zm-3874.7 115.71c-100.78,-359.62 -490.97,-300.35 -769.46,-46.61 -383.71,349.59 -379.5,1116.97 -1042.47,1436.63 -144.66,69.75 -341.21,105.01 -519.08,55.32 -695.81,-194.39 -657.45,-1496.82 -79.58,-2152.79 532.34,-604.29 1078.65,-465.5 1007.57,54.21 -35.29,258.02 -176.83,324.12 -131.63,457.16 176.06,73.64 354.43,-111.63 412.77,-203.19 271.03,-425.36 21.88,-976.26 -737.79,-923.18 -651.97,45.55 -1178.04,615.44 -1362.55,1138.91 -255.8,725.7 -98.69,1550.06 450.13,1837.69 313.77,164.45 715.73,151.11 1012.95,-20.69 220.98,-127.73 528.02,-442.31 598.96,-638.34 54.99,265.35 109.94,498.13 391.08,520.73 357.17,28.7 492.89,-267.85 569.02,-337.29 69.76,197.68 174.63,387.37 456.65,328.6 255.46,-53.24 364.95,-275.8 441.75,-342.53 10.5,114.28 17.56,220.25 78.74,291.47 54.48,63.43 202.66,76.67 277.65,21.75 51.91,-38.02 74.5,-189.63 99.71,-268.09 30.29,-94.26 60.95,-170.89 96.34,-258.36 73.03,-180.47 425.24,-875.6 593.11,-808.31 129.8,159.7 -375.4,1123.87 93.18,1338.21 467.06,213.64 857.18,-682.37 866.47,-757.97 73.55,392.01 166.66,1064.17 634.86,659.4 314.67,-272.04 440.69,-540.96 641.72,-881.41 202.65,-3.13 222.99,-5.75 375.11,-81.79 -38.65,215.39 -90.81,208.17 -82.22,540.97 10.97,425.18 280.42,671.85 639.05,511.14 201.45,-90.28 246.41,-234.86 318,-294.69 37.49,145.09 98.03,252.98 215.23,306.15 477.95,216.82 962.79,-616.6 685.63,-690.62 -50.97,30.99 -82.83,167.33 -153.56,287.11 -39.43,66.77 -131.58,200.75 -226.14,189.91 -171.49,-19.65 -32.47,-566.02 -2.9,-693.52l181.53 -678.77c11.15,-163.93 -161.94,-159.74 -279.09,-112.17 -99.41,40.37 -153.77,125.97 -214.54,207.08 -40.23,-49.28 -66.87,-231.42 -313.56,-243.41 -536.74,-26.09 -563.4,627.67 -1061.62,583.91 8.62,-72.49 66.91,-200.57 90.08,-290.13 231.75,-895.6 -693.53,-777.42 -650.48,-62.26 6.27,104.07 46.26,215.73 94.93,287.07 61.88,90.7 104.85,106.12 189.22,175.46 -28.33,130.54 -386.5,756.31 -514.36,722.12 -144.61,-38.67 -137.7,-841.64 -136.19,-1021.78 0.9,-108.01 29.77,-266.48 20.83,-349.07 -132.53,-127.09 -354.47,1.44 -417.33,116.81 -80.87,148.42 -58.31,347.5 -97.74,528.04 -53.38,244.41 -280.85,774.31 -527.37,723.11 -204.65,-199.81 324.27,-1079.34 7.54,-1353.3 -191.34,-165.5 -456.08,46.22 -553.02,143.08 -189.07,188.93 -289.44,403.66 -354.43,465.48 21.22,-196.42 131.11,-586.41 -89.16,-647.17 -117.13,-32.31 -264.44,18.76 -275.93,114.54 -17.19,143.27 -10.44,227.23 -40.17,368.33 -51.86,246.09 -295.34,1052.44 -627.47,990.45 -115.91,-203.85 75.08,-827.97 138.12,-1043.58 58.65,-200.61 170.73,-419.57 -31.33,-436.77 -239.19,-20.36 -287.5,135.5 -386.76,236.97z"/>
 </g>
</svg>
