<?xml version="1.0" encoding="UTF-8"?>
<!DOCTYPE svg PUBLIC "-//W3C//DTD SVG 1.1//EN" "http://www.w3.org/Graphics/SVG/1.1/DTD/svg11.dtd">
<!-- Creator: CorelDRAW 2020 (64-Bit) -->
<svg xmlns="http://www.w3.org/2000/svg" xml:space="preserve" width="50.8338mm" height="37.6061mm" version="1.1" style="shape-rendering:geometricPrecision; text-rendering:geometricPrecision; image-rendering:optimizeQuality; fill-rule:evenodd; clip-rule:evenodd"
viewBox="0 0 5083.38 3760.61"
 xmlns:xlink="http://www.w3.org/1999/xlink"
 xmlns:xodm="http://www.corel.com/coreldraw/odm/2003">
 <defs>
  <style type="text/css">
   <![CDATA[
    .fil0 {fill:#FEFEFE;fill-rule:nonzero}
   ]]>
  </style>
 </defs>
 <g id="Capa_x0020_1">
  <metadata id="CorelCorpID_0Corel-Layer"/>
  <path class="fil0" d="M3552.06 0l-2904.38 0c-326.01,11.75 -618.13,287.56 -646.45,613.1 -1.97,153.98 -1,307.97 -0.86,461.93 -3.33,37.14 25,68.42 55.85,84.89 484.85,240.95 970.54,480.39 1455.22,721.75 -481.07,236.37 -960.46,475.77 -1440.97,713.24 -33.65,15.09 -69.79,43.96 -69.66,84.2 -0.46,72.29 -0.77,144.6 -0.81,216.91l0 21.69c0.02,74.72 0.34,149.45 1.09,224.17 23.73,306.69 281.42,575.02 586.19,613.96 60.59,5.61 121.44,4.63 182.17,4.77l42.1 0 42.09 0 42.1 0 42.1 0 42.1 0 42.09 0 42.1 0 42.1 0 42.09 0 42.1 0 42.1 0 42.1 0 42.09 0 42.1 0 42.1 0 42.1 0 42.09 0 42.1 0 42.1 0 42.1 0 42.09 0 42.1 0 42.1 0 42.1 0 42.1 0 42.09 0 42.1 0 42.1 0 42.1 0 42.1 0 42.1 0 42.09 0 42.1 0 42.1 0 42.1 0 42.1 0 42.1 0 42.1 0 42.1 0 42.1 0 42.1 0 42.1 0 42.1 0 42.1 0 42.1 0 42.1 0 42.1 0 42.1 0 42.1 0 42.1 0 42.1 0 42.1 0 42.1 0 42.1 0 42.1 0 42.1 0 42.11 0 42.1 0 42.1 0 42.1 0 42.1 0 42.11 0 42.1 0 42.1 0c64.8,-0.99 130.84,1.27 193.95,-15.94 190.54,-45.52 358.49,-175.72 451.06,-348.29 35.32,-60.33 50.8,-129.12 73.95,-193.93 276.71,144.07 559.15,277.95 837.91,418.14 24.73,18.84 65.06,0.42 62.55,-31.85 0,-159.42 0.28,-318.84 -0.14,-478.27 -0.71,-32.39 -25.54,-58.09 -54.15,-69.65 -779.99,-386.44 -1559.68,-773.3 -2339.79,-1159.56 781.53,-387.81 1563.43,-774.81 2344.94,-1162.48 29.17,-12.44 51.22,-42.44 49.14,-74.82 -0.28,-159.29 0.85,-318.45 -0.56,-477.59 -0.67,-24.98 -32.81,-40.75 -54.16,-28.89 -283.1,140.15 -566.38,280.6 -849.34,421.04 -21.38,-91.59 -55.99,-180.79 -110.56,-257.71 -116.24,-170.33 -310.83,-284.45 -516.53,-300.81zm-3013.63 604.46c28.89,-60.46 95.08,-98.57 161.66,-96.05 930.87,0.14 1861.9,-0.14 2792.93,0.14 85.13,-2.37 165.25,66.03 174.77,150.91 3.6,46.77 1.84,93.83 1.41,140.72 -522.14,258.55 -1044.25,517.1 -1566.22,776.35 -528.27,-259.68 -1055.14,-522.4 -1582.69,-783.75 2.64,-62.69 -10.77,-129.96 18.14,-188.32zm-18.02 2341.03c525.9,-262.32 1052.89,-522.28 1579.34,-783.49 524.21,255.35 1046.48,517.8 1569.74,776.21 -3.53,67.7 12.94,141.84 -22.65,203.54 -29.88,54.29 -91.02,88.51 -152.72,87.68 -931.15,0.28 -1862.44,0 -2793.61,0.14 -65.61,2.37 -131.36,-34.2 -160.68,-93.4 -30.84,-58.64 -16.9,-127.34 -19.42,-190.68z"/>
 </g>
</svg>
