<?xml version="1.0" encoding="utf-8"?>
<!-- Generator: Adobe Illustrator 27.7.0, SVG Export Plug-In . SVG Version: 6.00 Build 0)  -->
<svg version="1.1" id="Capa_1" xmlns="http://www.w3.org/2000/svg" xmlns:xlink="http://www.w3.org/1999/xlink" x="0px" y="0px"
	 viewBox="0 0 512 512" style="enable-background:new 0 0 512 512;" xml:space="preserve">
<style type="text/css">
	.st0{fill:#390000;}
</style>
<g id="Layer_2_00000139992070164898275570000017758719175361977789_">
	<g>
		<g id="Surfaces_00000119085617208767828690000014519945991287167645_">
			<g id="Drawing_Surface_00000163032328744306035710000016664230109783240832_">
				<g id="Outline_no_shadow_00000042696281897767711830000010907556527111160740_">
					<path class="st0" d="M208,173.7h-0.4l-26.5,89h54.2L208,173.7z M208,173.7h-0.4l-26.5,89h54.2L208,173.7z M421.3,6.4H90.7
						C40.5,6.4,0,46.9,0,97.1v317.9c0,50.1,40.5,90.7,90.7,90.7h330.7c50.1,0,90.7-40.5,90.7-90.7V97.1
						C512,46.9,471.5,6.4,421.3,6.4z M313.6,359H269c-1.5,0.2-3-0.9-3.4-2.3l-17.5-50.8h-79.4l-16.2,50.1c-0.4,1.9-2.1,3.2-4.1,3
						h-40.1c-2.3,0-3-1.3-2.3-3.8l68.7-197.8c0.6-2.1,1.3-4.5,2.1-7c0.9-4.5,1.3-9.2,1.3-13.9c-0.2-1.1,0.6-2.1,1.7-2.3h55.3
						c1.7,0,2.6,0.6,2.8,1.7l77.9,219.7C316.4,358,315.7,359,313.6,359z M386.1,355.8c0,2.3-0.9,3.4-2.8,3.4h-41.8
						c-2.1,0-3.2-1.3-3.2-3.4V191.6c0-2.1,0.9-3,2.8-3h42.2c1.9,0,2.8,1.1,2.8,3L386.1,355.8L386.1,355.8z M381.7,163.2
						c-4.9,5.1-12.2,7.9-19.4,7.5c-7,0.2-13.9-2.6-19-7.5c-4.9-5.3-7.5-12.4-7.3-19.6c-0.2-7.3,2.6-14.1,7.7-19
						c5.1-4.9,11.9-7.5,19-7.5c8.3,0,14.7,2.6,19.4,7.5c4.7,5.1,7.3,11.9,7,19C389.3,150.8,386.8,157.9,381.7,163.2z M207.6,173.7
						l-26.5,89h54.2l-27.3-89H207.6z"/>
				</g>
			</g>
		</g>
	</g>
</g>
</svg>
